<svg width="158" height="46" viewBox="0 0 158 46" fill="none" xmlns="http://www.w3.org/2000/svg">
<rect width="158" height="46" rx="23" fill="black"/>
<path d="M13 32V13L23 22.5L13 32Z" fill="#F5F5F5"/>
<path d="M32.8651 40V5.09091H55.5696V10.392H39.1889V19.8693H54.3935V25.1705H39.1889V34.6989H55.706V40H32.8651ZM67.3054 5.09091L74.9929 17.875H75.2656L82.9872 5.09091H90.1974L79.4418 22.5455L90.3679 40H83.0384L75.2656 27.3011H74.9929L67.2202 40H59.9247L70.9531 22.5455L60.0611 5.09091H67.3054ZM101.486 5.09091V40H95.1619V5.09091H101.486ZM106.8 10.392V5.09091H134.652V10.392H123.862V40H117.589V10.392H106.8Z" fill="#F5F5F5"/>
</svg>
